<svg version="1.1" id="Layer_1" xmlns="http://www.w3.org/2000/svg" xmlns:xlink="http://www.w3.org/1999/xlink" x="0px" y="0px"
	 width="100%" viewBox="0 0 512 512" enable-background="new 0 0 512 512" xml:space="preserve">
<path fill="#010101" opacity="1.000000" stroke="none" 
	d="
M1.000000,143.000000 
	C1.000000,95.333336 1.000000,48.166668 1.000000,1.000000 
	C171.666672,1.000000 342.333344,1.000000 513.000000,1.000000 
	C513.000000,171.666672 513.000000,342.333344 513.000000,513.000000 
	C342.333344,513.000000 171.666672,513.000000 1.000000,513.000000 
	C1.000000,389.833344 1.000000,266.666656 1.000000,143.000000 
M272.131134,6.842360 
	C270.547211,6.937912 268.963318,7.033464 266.894989,7.158240 
	C267.168091,10.117553 267.618988,12.702042 267.594971,15.282115 
	C267.559021,19.153675 267.189911,23.022142 266.221863,27.136051 
	C260.891388,27.542246 255.543396,28.392496 250.237167,28.183435 
	C247.190323,28.063391 245.599335,25.348230 245.901581,21.971884 
	C246.341614,17.056194 246.654419,12.129117 247.035309,7.021175 
	C244.953064,7.021175 243.478760,7.021175 241.122101,6.804157 
	C239.527374,6.804157 237.932648,6.804157 235.831329,6.804157 
	C236.107300,12.339831 236.135635,17.315144 236.666901,22.236164 
	C237.131607,26.540548 235.406784,29.218100 231.363800,29.779148 
	C227.785461,30.275717 223.954193,30.436535 220.486633,29.643515 
	C218.636566,29.220409 216.266357,26.627405 215.974792,24.730354 
	C215.303299,20.361467 215.729980,15.819059 215.769379,11.347574 
	C215.790115,8.992829 217.058884,6.112633 212.777298,6.111999 
	C207.617371,6.111235 205.769043,7.454259 206.021729,11.607274 
	C206.203384,14.592966 206.821518,17.564610 206.839615,20.544981 
	C206.871338,25.771423 203.941986,28.363369 198.167938,28.618822 
	C192.823990,28.855244 190.480087,26.984207 189.883179,21.584585 
	C189.395187,17.170237 189.223114,12.720966 188.883682,7.899454 
	C187.005035,7.899454 185.216110,7.863556 183.429092,7.906531 
	C178.981537,8.013485 176.508163,9.495393 176.815994,14.770902 
	C177.123596,20.042358 176.234970,25.382502 175.887711,30.693644 
	C175.606064,35.001244 177.651016,37.204147 181.977402,37.134808 
	C203.258163,36.793739 224.538864,36.111671 245.818787,36.140713 
	C274.424744,36.179752 303.029846,36.771702 331.635925,37.066635 
	C332.847870,37.079128 334.066040,36.490475 336.040985,35.994282 
	C336.719879,34.142635 337.984283,32.285904 337.968292,30.440279 
	C337.919617,24.833048 337.111664,19.229830 337.117523,13.625591 
	C337.121490,9.836843 335.713043,8.163885 331.137360,7.979163 
	C329.079163,7.979163 327.020966,7.979163 325.524292,7.979163 
	C324.659698,14.427603 323.880432,20.239613 322.465240,26.527533 
	C318.582581,29.678642 314.348877,29.188143 310.391083,27.092617 
	C306.477905,25.020679 306.946960,21.052048 307.300659,17.366812 
	C307.506500,15.222557 307.783600,13.085133 308.029327,10.944715 
	C308.374817,7.935398 307.031921,6.586400 303.397675,6.452669 
	C299.341980,5.434968 297.656036,6.454903 298.088867,11.144660 
	C298.571655,16.376019 298.049988,21.700077 297.412079,27.475311 
	C293.153015,31.709229 287.858704,30.379019 282.907227,29.841507 
	C278.661865,29.380646 276.831024,26.655293 277.330719,22.128656 
	C277.883423,17.121651 277.861725,12.051248 278.102997,6.725832 
	C275.931976,6.846970 274.466949,6.928714 272.131134,6.842360 
M235.880295,83.897438 
	C235.880295,90.526222 235.880295,97.155014 235.880295,103.725952 
	C240.231369,104.218498 241.803223,102.692848 241.854706,99.328331 
	C241.908203,95.832176 241.542938,92.204460 242.366287,88.883575 
	C243.064407,86.067780 244.769806,81.805458 246.774384,81.331093 
	C252.557617,79.962547 258.774872,79.502594 264.710205,80.004356 
	C269.202332,80.384109 271.611115,84.271919 271.809814,88.990143 
	C271.956940,92.484268 272.083801,95.979805 272.165192,99.475983 
	C272.252197,103.215202 274.259552,104.199257 278.273102,103.712616 
	C278.273102,97.931190 278.423798,92.474083 278.228882,87.029350 
	C278.049835,82.028137 279.610809,79.623550 283.816986,79.280968 
	C295.699738,78.313148 298.467621,80.811729 298.645294,92.669495 
	C298.657776,93.502144 298.642761,94.335358 298.664551,95.167686 
	C298.882355,103.495384 298.883789,103.495346 307.991272,104.773155 
	C307.991272,97.906204 308.267700,91.117538 307.899414,84.364037 
	C307.629181,79.409126 309.582550,77.231415 314.355255,77.221649 
	C318.085693,77.214012 321.816101,77.220123 325.386963,77.220123 
	C325.101379,71.692322 324.852600,66.876686 324.814514,61.213234 
	C324.814514,59.440903 324.814514,57.668571 324.814514,55.983330 
	C279.336945,55.983330 234.352356,55.983330 188.932739,55.983330 
	C188.932739,63.133305 188.932739,70.058441 188.932739,77.369026 
	C192.818069,77.369026 196.785202,77.296799 200.748489,77.389488 
	C204.658035,77.480927 206.218430,79.472618 206.076538,83.485695 
	C205.826843,90.547951 206.006744,97.625397 206.006744,104.832497 
	C215.082870,103.345261 215.080154,103.345169 215.335190,95.464523 
	C215.410568,93.135429 215.370178,90.792084 215.623856,88.481728 
	C216.006805,84.993919 216.329636,80.402573 220.490402,80.254097 
	C225.622726,80.070953 231.874298,76.380119 235.880295,83.897438 
M321.761444,84.021667 
	C319.378845,84.021667 316.996277,84.021667 314.426544,84.021667 
	C314.426544,92.609634 314.426544,100.620338 314.001526,109.193687 
	C310.499847,113.597641 305.999603,111.894409 301.691101,111.164742 
	C292.679413,109.638580 292.048676,108.764427 291.893646,99.670311 
	C291.821411,95.433624 291.342163,91.203880 290.789307,86.242332 
	C288.610321,85.911324 286.431366,85.580307 284.335876,85.261978 
	C283.881531,93.274353 283.463470,100.646492 282.519653,108.588982 
	C274.079163,112.856758 266.424713,108.767212 265.944824,99.706070 
	C265.830597,97.549454 265.800262,95.383865 265.840057,93.224411 
	C265.987762,85.206551 264.142761,83.579521 255.364914,84.564865 
	C248.279205,85.560799 248.157730,85.893600 248.072998,92.837914 
	C248.019440,97.227859 247.374786,101.610603 246.428513,106.397827 
	C243.629196,107.658066 240.829865,108.918304 237.202942,110.034004 
	C232.882950,110.569244 230.644867,108.903519 230.563995,104.309120 
	C230.453629,98.039680 230.045563,91.775475 229.765747,85.523010 
	C222.380219,85.579300 222.129883,85.815292 222.051910,92.639397 
	C222.036682,93.972122 222.031967,95.305717 222.060989,96.638077 
	C222.360428,110.384010 221.421661,110.189621 207.212845,111.889923 
	C201.376541,112.588326 199.276291,110.447906 199.119659,104.508987 
	C198.941544,97.754410 199.078506,90.991531 199.078506,84.001877 
	C197.053467,84.001877 195.080276,84.062393 193.111969,83.989769 
	C188.461075,83.818192 186.354706,85.947708 186.715332,90.645050 
	C186.931595,93.461975 187.014114,96.303116 186.929153,99.126518 
	C186.705276,106.566116 185.222702,108.289864 178.121368,109.640976 
	C176.488525,109.951645 174.816254,110.057686 173.185867,110.378471 
	C164.045288,112.176941 161.709045,110.238159 161.779861,100.931335 
	C161.819763,95.686890 161.787048,90.441879 161.787048,85.118759 
	C159.705688,85.118759 157.718582,85.249023 155.754440,85.092072 
	C151.455414,84.748558 149.756317,86.636459 149.941620,90.910988 
	C150.128922,95.231682 150.233841,99.614044 149.701218,103.885391 
	C149.396576,106.328590 148.203339,110.210487 146.622452,110.657257 
	C141.694366,112.049965 136.234100,113.144653 131.278610,112.391495 
	C126.693527,111.694618 126.655930,106.356216 126.405228,102.428917 
	C126.092735,97.533569 126.330208,92.603111 126.330208,87.828827 
	C122.027107,87.451286 118.731087,87.182068 115.439224,86.869125 
	C108.596184,86.218575 108.160355,86.958939 108.164146,93.767540 
	C108.169762,103.860779 107.605827,113.953781 107.348389,124.048515 
	C107.319756,125.171227 107.537476,126.367828 107.929230,127.423141 
	C111.642525,137.426041 120.445137,143.371628 130.204346,143.278061 
	C132.023972,137.341278 133.075165,131.367935 135.769424,126.261490 
	C137.000809,123.927635 141.490585,122.225662 144.462952,122.283180 
	C146.416840,122.320992 149.169174,125.706390 150.032272,128.136658 
	C151.781189,133.061234 152.489685,138.355301 153.631134,143.515228 
	C155.946426,143.515228 158.377731,143.515228 160.365082,143.515228 
	C161.259964,137.940796 161.539154,132.573059 163.059967,127.583801 
	C165.307510,120.210373 173.486389,118.053726 178.884445,123.408844 
	C181.029755,125.537079 182.164169,129.056854 182.884888,132.146942 
	C183.651489,135.433701 183.382828,138.961929 183.569244,142.441193 
	C186.461777,142.441193 188.847366,142.441193 190.611542,142.441193 
	C191.385941,137.575317 191.655716,133.058441 192.890457,128.822861 
	C194.500397,123.300163 198.453415,120.505981 202.984222,120.800354 
	C208.498352,121.158600 209.979141,125.424355 210.884903,129.706421 
	C211.801529,134.039886 212.052185,138.514236 212.633362,143.242584 
	C214.201950,143.152298 215.596313,143.072021 215.682526,143.067062 
	C216.554031,137.207291 216.801605,131.905762 218.227676,126.942871 
	C219.756516,121.622414 224.708893,118.497437 229.106018,119.114182 
	C234.508881,119.872009 237.187134,123.578072 237.994171,128.544540 
	C238.755295,133.228531 238.928909,138.007980 239.380249,142.956726 
	C241.471878,142.956726 243.554108,142.956726 245.791687,142.956726 
	C244.599258,133.805557 243.038132,124.803749 253.889374,119.360870 
	C258.531128,117.464699 262.611938,118.142448 266.153320,122.745918 
	C267.387054,129.312073 268.620758,135.878235 269.917145,142.777893 
	C271.000671,142.777893 273.022400,142.777893 273.775330,142.777893 
	C275.270081,135.736359 276.622925,129.363297 278.557037,122.605164 
	C284.677490,117.090233 288.941711,117.695274 295.296631,125.704216 
	C296.342529,131.371246 297.388428,137.038284 298.522736,143.184219 
	C298.738831,143.172058 300.153229,143.092484 301.028442,143.043243 
	C302.195007,136.778519 303.274231,130.982773 304.872284,124.732239 
	C309.787109,118.832741 314.092529,119.178085 320.281616,126.707840 
	C321.388245,131.906738 322.494843,137.105637 323.723785,142.879196 
	C325.596558,142.743515 328.088440,142.562973 330.015961,142.423325 
	C330.830566,136.512131 331.545349,131.325333 332.804230,125.738144 
	C339.163757,118.589012 345.223114,118.711418 350.906067,126.906433 
	C351.816284,132.366196 352.726532,137.825958 353.686676,143.585175 
	C355.784088,143.585175 358.205536,143.585175 360.362885,143.585175 
	C361.661163,137.633545 362.920105,131.862381 364.731171,125.648155 
	C368.817688,120.155540 372.865601,120.288673 379.011475,126.827507 
	C380.544403,132.317627 382.077362,137.807739 383.645081,143.422516 
	C395.188385,144.203400 401.096863,136.305527 406.399170,126.388634 
	C406.514160,125.740990 406.752991,125.088051 406.725525,124.446495 
	C406.329712,115.190590 405.337433,105.918892 405.622650,96.686028 
	C405.949524,86.104897 405.744293,85.506424 394.187500,87.461288 
	C392.242279,87.461288 390.297058,87.461288 388.830353,87.461288 
	C387.859131,95.333664 386.952942,102.678581 385.486755,110.513214 
	C382.324219,114.431358 377.905975,113.227097 373.926086,113.069344 
	C367.181671,112.802010 364.470978,109.908836 364.148010,103.103958 
	C363.935913,98.634521 363.953339,94.151443 363.969086,89.674835 
	C363.981049,86.270538 362.466583,84.775085 358.151276,85.098495 
	C356.058105,85.098495 353.964905,85.098495 352.203003,85.098495 
	C352.203003,91.035057 352.584656,96.537117 352.054321,101.949821 
	C351.754730,105.007172 349.955109,107.917557 347.972321,110.980019 
	C343.079773,110.334763 338.201843,109.384758 333.289642,109.148956 
	C329.886536,108.985588 328.328796,107.251106 328.028259,104.436264 
	C327.505249,99.537704 327.346588,94.591866 327.229797,89.661232 
	C327.151855,86.369102 326.151276,84.169884 321.761444,84.021667 
M240.917313,269.202820 
	C291.897980,268.574921 342.878632,267.947021 394.677399,267.309052 
	C393.774536,228.749023 392.899353,191.369202 392.300568,153.096252 
	C392.609802,150.949615 392.246033,149.819885 389.510773,149.847748 
	C367.865784,150.068298 346.219086,150.126358 324.572815,150.210144 
	C313.604004,150.252594 302.632172,150.407669 291.666687,150.221100 
	C276.029724,149.955063 260.362488,148.572189 244.771622,149.211960 
	C223.976349,150.065308 203.244568,150.698257 182.419678,149.977066 
	C162.335968,149.281555 142.209290,149.826523 121.524414,149.826523 
	C120.877205,188.923782 120.236946,227.600922 119.581299,267.207764 
	C160.226395,267.807709 200.114166,268.396515 240.917313,269.202820 
M393.131195,294.204529 
	C393.322784,292.253235 393.514343,290.301941 393.644379,288.977539 
	C302.470764,288.977539 211.353073,288.977539 120.443100,288.977539 
	C120.559700,291.370697 120.811806,294.022583 120.798874,296.673126 
	C120.680382,320.963898 117.641983,345.133362 119.195145,369.543243 
	C120.537033,390.632843 119.952286,411.858307 119.838013,433.021667 
	C119.781487,443.490417 118.627769,453.949341 118.401123,464.422058 
	C118.135681,476.687469 118.339035,488.963013 118.339035,501.278809 
	C137.802856,506.331970 157.565887,503.642822 177.107101,504.095032 
	C196.851944,504.551941 216.640137,503.136719 236.670212,502.533783 
	C237.065994,497.759460 237.387390,492.962646 237.875717,488.182861 
	C238.898651,478.170227 246.843643,471.244049 257.307098,471.141602 
	C267.196655,471.044800 275.087189,478.135803 276.116089,488.149872 
	C276.607239,492.930206 276.926849,497.728180 277.328857,502.574615 
	C280.206299,502.410950 282.851471,502.007416 285.464752,502.157776 
	C294.440369,502.674164 303.399323,503.821777 312.374634,503.934448 
	C334.530945,504.212677 356.694946,504.223175 378.850922,503.946289 
	C384.556519,503.874969 390.243866,502.342377 395.942841,501.480591 
	C395.942841,492.609253 395.942841,484.296539 396.098175,475.074066 
	C395.398590,465.287109 394.173615,455.503876 394.105072,445.712494 
	C393.945404,422.902283 393.590881,400.051361 394.707001,377.285126 
	C396.055847,349.772217 394.097229,322.420532 393.131195,294.204529 
M204.499847,273.901733 
	C201.001099,273.936340 197.502060,273.952301 194.003662,274.008545 
	C168.047943,274.425842 142.052109,276.678802 116.200584,272.170654 
	C114.735970,271.915283 112.640633,272.438538 111.582588,273.409698 
	C110.265213,274.618835 109.026970,276.695404 109.085564,278.350250 
	C109.125198,279.469757 111.333923,281.172302 112.793411,281.449097 
	C116.196594,282.094482 119.731400,282.201782 123.215919,282.238373 
	C162.168533,282.647461 201.121094,283.126190 240.074997,283.323303 
	C262.882477,283.438690 285.692474,283.098816 308.501129,282.932373 
	C336.822845,282.725708 365.144562,282.504395 393.465698,282.232330 
	C396.114288,282.206879 398.826050,282.045044 401.378510,281.417664 
	C402.759399,281.078278 404.739136,279.734711 404.883270,278.638336 
	C405.082397,277.124054 404.249756,274.718964 403.053894,273.954010 
	C401.274231,272.815613 398.764465,272.263855 396.612518,272.374969 
	C391.806152,272.623138 387.033875,273.892395 382.239075,273.943909 
	C350.611389,274.283539 318.981384,274.571533 287.352264,274.558105 
	C260.067780,274.546539 232.783524,274.113007 204.499847,273.901733 
M294.625671,50.825489 
	C306.998108,50.168579 319.370575,49.511669 332.206848,48.830132 
	C332.311859,47.105949 332.466156,44.572853 332.633575,41.824158 
	C281.787415,41.824158 231.668915,41.824158 181.328598,41.824158 
	C181.519852,44.940907 181.661484,47.249119 181.825211,49.917480 
	C189.610901,49.917480 197.189285,49.736107 204.754700,49.971333 
	C211.561890,50.182983 218.357071,51.269035 225.153671,51.233280 
	C240.076385,51.154770 254.995148,50.477154 269.918518,50.310574 
	C277.865570,50.221863 285.818817,50.688385 294.625671,50.825489 
M265.400116,503.066101 
	C267.512115,503.066101 269.624146,503.066101 272.172089,503.066101 
	C271.683319,498.450012 271.336151,494.522827 270.823273,490.617371 
	C270.587219,488.819733 270.169617,487.016235 269.587280,485.299194 
	C267.610870,479.471649 263.302460,476.371002 257.253906,476.266418 
	C251.010193,476.158447 246.733231,478.448608 244.969070,484.351105 
	C243.216568,490.214600 242.622925,496.424438 241.412521,503.079254 
	C249.873856,503.079254 257.147644,503.079254 265.400116,503.066101 
M254.612823,143.072754 
	C257.543488,143.072754 260.474152,143.072754 264.118469,143.072754 
	C263.885468,137.972931 263.839874,133.544373 263.428101,129.150162 
	C263.146179,126.141762 262.503540,123.064629 258.463379,122.851860 
	C254.536972,122.645081 251.321274,124.236076 250.272842,127.946198 
	C249.304031,131.374603 249.554230,135.134842 249.125259,138.731979 
	C248.698395,142.311325 250.309525,143.559464 254.612823,143.072754 
M341.681427,142.875092 
	C343.941620,142.875092 346.201843,142.875092 349.693207,142.875092 
	C348.824097,137.848618 348.548462,133.230881 347.062134,129.042816 
	C346.403534,127.187027 342.952515,124.784584 341.384491,125.165245 
	C339.262878,125.680290 337.084778,128.362442 336.138611,130.620850 
	C335.255096,132.729599 336.105927,135.511703 335.912628,137.975418 
	C335.626373,141.624359 337.118835,143.248550 341.681427,142.875092 
M165.246399,142.151443 
	C168.779617,142.323593 172.315536,142.628082 175.843811,142.556625 
	C176.552475,142.542282 177.774628,141.135727 177.830704,140.308105 
	C178.064682,136.855148 178.586884,133.205734 177.719727,129.972656 
	C177.172577,127.932724 174.546997,125.518524 172.492096,125.115349 
	C170.904526,124.803856 167.646362,126.989555 167.078857,128.708221 
	C165.765854,132.684586 165.634689,137.051163 165.246399,142.151443 
M137.114548,130.850632 
	C136.319061,134.960358 135.523560,139.070084 134.650055,143.582840 
	C139.654282,143.582840 143.535782,143.582840 147.465210,143.582840 
	C147.465210,139.529816 147.950790,135.683929 147.284592,132.049164 
	C146.879623,129.839645 144.696381,127.956062 143.311966,125.926071 
	C141.346649,127.323128 139.381332,128.720184 137.114548,130.850632 
M368.796906,143.875702 
	C372.039368,143.875702 375.281830,143.875702 379.714630,143.875702 
	C378.435181,138.489929 377.748169,133.933899 376.156281,129.719681 
	C375.523682,128.044983 372.789764,126.034752 371.188751,126.175934 
	C369.619232,126.314339 367.566711,128.772705 366.995300,130.608002 
	C366.136047,133.367935 366.162170,136.478775 366.251434,139.427109 
	C366.296417,140.911469 367.309387,142.366486 368.796906,143.875702 
M284.447357,142.243515 
	C286.093475,142.418762 287.760498,142.830170 289.378448,142.687027 
	C290.474274,142.590088 292.011139,141.988663 292.470093,141.137817 
	C294.408600,137.544159 292.451630,128.678574 289.373169,125.745491 
	C286.470978,122.980331 284.012573,123.761909 281.921539,126.710884 
	C279.289337,130.423096 280.199554,138.397827 284.447357,142.243515 
M232.431931,127.235535 
	C228.543991,122.894348 225.044449,122.872864 223.098236,128.120209 
	C221.477524,132.489960 221.741699,137.558807 221.089523,142.997711 
	C225.660721,142.561386 228.716003,142.269760 232.799622,141.879974 
	C232.799622,136.995834 232.799622,132.450012 232.431931,127.235535 
M205.845078,127.967628 
	C202.845947,124.205429 200.883743,124.070175 198.202972,127.720879 
	C195.100403,131.945953 194.356583,136.723755 195.271042,142.167053 
	C198.881073,142.458878 202.295883,142.734940 206.779037,143.097366 
	C206.528061,137.863388 206.309570,133.306686 205.845078,127.967628 
M312.274353,125.060684 
	C310.752502,126.515450 308.155060,127.814728 307.917908,129.455215 
	C307.297607,133.746155 307.708862,138.186218 307.708862,143.130341 
	C311.909088,142.736664 315.298706,142.418976 318.957855,142.076004 
	C319.373688,135.254532 318.796661,129.358749 312.274353,125.060684 
z"/>
<path fill="#D5CFB5" opacity="1.000000" stroke="none" 
	d="
M395.942841,475.983795 
	C395.942841,484.296539 395.942841,492.609253 395.942841,501.480591 
	C390.243866,502.342377 384.556519,503.874969 378.850922,503.946289 
	C356.694946,504.223175 334.530945,504.212677 312.374634,503.934448 
	C303.399323,503.821777 294.440369,502.674164 285.464752,502.157776 
	C282.851471,502.007416 280.206299,502.410950 277.328857,502.574615 
	C276.926849,497.728180 276.607239,492.930206 276.116089,488.149872 
	C275.087189,478.135803 267.196655,471.044800 257.307098,471.141602 
	C246.843643,471.244049 238.898651,478.170227 237.875717,488.182861 
	C237.387390,492.962646 237.065994,497.759460 236.670212,502.533783 
	C216.640137,503.136719 196.851944,504.551941 177.107101,504.095032 
	C157.565887,503.642822 137.802856,506.331970 118.339035,501.278809 
	C118.339035,488.963013 118.135681,476.687469 118.401123,464.422058 
	C118.627769,453.949341 119.781487,443.490417 119.838013,433.021667 
	C119.952286,411.858307 120.537033,390.632843 119.195145,369.543243 
	C117.641983,345.133362 120.680382,320.963898 120.798874,296.673126 
	C120.811806,294.022583 120.559700,291.370697 120.443100,288.977539 
	C211.353073,288.977539 302.470764,288.977539 393.644379,288.977539 
	C393.514343,290.301941 393.322784,292.253235 392.646484,294.651306 
	C388.085297,295.723724 383.831879,297.428833 379.961945,296.794556 
	C359.414886,293.426941 338.766754,295.257111 318.180817,295.134064 
	C303.765381,295.047852 289.277649,295.704926 274.941132,297.183258 
	C262.323822,298.484314 250.754166,303.149353 242.170685,313.283813 
	C239.952850,315.902405 237.658691,318.456329 235.258789,320.611328 
	C234.446121,316.127899 234.286942,311.898499 232.979462,308.060181 
	C231.125946,302.618896 224.234772,301.277679 221.237152,306.071198 
	C218.684784,310.152679 217.625977,315.388245 216.816544,320.264313 
	C216.251221,323.669861 218.939468,325.698578 222.410553,325.792908 
	C225.869629,325.886902 229.337357,325.661835 232.877563,326.002930 
	C232.563309,328.370239 232.291901,330.344299 231.763718,332.247070 
	C226.839722,349.985718 227.356094,367.145813 235.841034,383.960388 
	C243.463760,399.066315 255.040634,410.569702 267.713226,421.199799 
	C283.353333,434.319183 301.180756,443.338257 320.719208,449.153107 
	C339.994843,454.889771 359.304535,460.543793 378.395569,466.850830 
	C384.575867,468.892639 390.112030,472.884125 395.942841,475.983795 
M202.419785,417.872314 
	C206.663345,417.835907 211.968918,418.906860 212.595917,412.829529 
	C213.150894,407.450592 212.374969,401.920258 211.982620,396.471436 
	C211.916443,395.552277 210.818817,393.949493 210.194611,393.947937 
	C205.089935,393.935455 199.952866,393.977905 194.903152,394.616516 
	C193.745438,394.762909 192.198975,397.198761 192.019440,398.721100 
	C191.458710,403.475708 191.032883,408.338715 191.483948,413.071167 
	C191.647156,414.783508 194.206436,416.693085 196.105438,417.675903 
	C197.550446,418.423767 199.679794,417.849396 202.419785,417.872314 
M173.113846,324.416107 
	C172.470627,318.501495 172.610687,312.352234 170.931564,306.747986 
	C169.633499,302.415558 163.401886,302.069153 160.088287,305.595581 
	C156.268631,309.660553 154.851562,314.748779 155.288391,320.242279 
	C155.557877,323.631317 157.570419,325.831726 161.103836,325.784393 
	C164.889023,325.733643 168.668533,325.258392 173.113846,324.416107 
z"/>
<path fill="#F3EED8" opacity="1.000000" stroke="none" 
	d="
M235.399597,321.039978 
	C237.658691,318.456329 239.952850,315.902405 242.170685,313.283813 
	C250.754166,303.149353 262.323822,298.484314 274.941132,297.183258 
	C289.277649,295.704926 303.765381,295.047852 318.180817,295.134064 
	C338.766754,295.257111 359.414886,293.426941 379.961945,296.794556 
	C383.831879,297.428833 388.085297,295.723724 392.550354,295.054626 
	C394.097229,322.420532 396.055847,349.772217 394.707001,377.285126 
	C393.590881,400.051361 393.945404,422.902283 394.105072,445.712494 
	C394.173615,455.503876 395.398590,465.287109 396.020508,475.528931 
	C390.112030,472.884125 384.575867,468.892639 378.395569,466.850830 
	C359.304535,460.543793 339.994843,454.889771 320.719208,449.153107 
	C301.180756,443.338257 283.353333,434.319183 267.713226,421.199799 
	C255.040634,410.569702 243.463760,399.066315 235.841034,383.960388 
	C227.356094,367.145813 226.839722,349.985718 231.763718,332.247070 
	C232.291901,330.344299 232.563309,328.370239 233.172058,325.819244 
	C234.060059,323.819489 234.729828,322.429749 235.399597,321.039978 
M301.409210,413.715698 
	C303.433472,415.119415 305.444763,417.716278 307.484070,417.738464 
	C324.129700,417.919769 322.972168,419.370911 322.667786,403.142792 
	C322.515076,395.001709 320.999756,393.933655 312.710358,393.946259 
	C310.888489,393.949036 309.055084,393.830902 307.246582,393.608917 
	C303.521118,393.151611 301.657532,394.442810 301.701080,398.477844 
	C301.752991,403.281342 301.403412,408.089203 301.409210,413.715698 
M357.091492,310.575378 
	C355.237457,306.456818 352.916351,302.670990 347.611145,303.529602 
	C342.248596,304.397522 341.525116,308.937225 340.838867,313.291290 
	C340.735596,313.946350 340.633392,314.601837 340.546326,315.259186 
	C339.221344,325.263367 339.576874,325.680939 349.591858,325.901062 
	C357.568542,326.076385 360.012939,323.103821 358.401581,315.129883 
	C358.140594,313.838379 357.714935,312.580109 357.091492,310.575378 
M294.830048,308.996857 
	C293.437469,305.137848 290.921478,302.824097 286.598511,303.523041 
	C281.311188,304.377930 277.046051,312.680542 277.908264,320.163147 
	C278.458099,324.935150 280.694183,326.195557 288.062561,325.838287 
	C289.549286,325.766174 291.029083,325.534363 292.515808,325.481049 
	C295.400879,325.377594 296.796997,323.982361 296.448486,321.066040 
	C295.998291,317.298523 295.492706,313.537567 294.830048,308.996857 
z"/>
<path fill="#D5CFB5" opacity="1.000000" stroke="none" 
	d="
M240.001938,268.985291 
	C200.114166,268.396515 160.226395,267.807709 119.581299,267.207764 
	C120.236946,227.600922 120.877205,188.923782 121.524414,149.826523 
	C142.209290,149.826523 162.335968,149.281555 182.419678,149.977066 
	C203.244568,150.698257 223.976349,150.065308 244.771622,149.211960 
	C260.362488,148.572189 276.029724,149.955063 291.666687,150.221100 
	C302.632172,150.407669 313.604004,150.252594 324.572815,150.210144 
	C346.219086,150.126358 367.865784,150.068298 389.510773,149.847748 
	C392.246033,149.819885 392.609802,150.949615 391.856689,153.686279 
	C387.932739,158.371262 383.437958,160.580124 378.198761,161.454514 
	C360.967468,164.330307 343.739380,167.225357 326.226715,169.951477 
	C320.103699,165.858154 316.792908,166.735718 313.070496,173.111023 
	C301.026245,176.396622 289.369537,179.541092 277.802551,182.986832 
	C273.411835,184.294815 269.227722,186.296219 264.939758,187.530350 
	C264.308655,182.317413 264.155792,177.422180 262.854401,172.854187 
	C262.265076,170.785690 259.546783,168.225479 257.519104,167.955475 
	C255.216782,167.648926 251.431366,168.974915 250.376160,170.798157 
	C248.215714,174.531082 246.822083,178.992844 246.286789,183.300400 
	C245.761353,187.528748 248.478607,190.047256 253.053116,189.967361 
	C255.703064,189.921082 258.355164,189.996506 260.979523,190.362152 
	C260.193756,191.535416 259.396332,192.331940 258.682098,193.197128 
	C254.171112,198.661331 248.079849,203.499084 245.563293,209.769028 
	C241.993561,218.662933 240.080185,228.532654 239.269928,238.138168 
	C238.410400,248.327454 239.668594,258.695374 240.001938,268.985291 
M213.304184,234.057373 
	C212.870056,236.653946 211.993759,239.276840 212.146347,241.838470 
	C212.261566,243.772888 213.497559,247.122940 214.571152,247.262939 
	C219.383026,247.890366 224.319061,247.691147 229.199142,247.502090 
	C229.775085,247.479782 230.831635,245.622345 230.729523,244.721710 
	C230.191666,239.978210 229.911392,235.090317 228.473450,230.594177 
	C226.797638,225.354279 220.668869,224.385406 216.828964,228.382172 
	C215.492661,229.773071 214.700256,231.686508 213.304184,234.057373 
M143.162064,189.840530 
	C146.467377,189.762238 149.860779,190.098801 153.039429,189.423920 
	C154.542206,189.104843 156.734177,186.827530 156.707703,185.474762 
	C156.624496,181.222183 156.128632,176.824295 154.797684,172.812729 
	C154.107559,170.732666 151.471054,168.221909 149.439377,167.948990 
	C147.146820,167.641022 143.326492,168.954651 142.329910,170.756989 
	C140.177582,174.649536 138.849167,179.241058 138.337692,183.679611 
	C138.128311,185.496628 140.905167,187.657761 143.162064,189.840530 
M199.587250,171.145035 
	C194.994354,165.936874 189.738220,166.163208 186.438538,172.119415 
	C184.880295,174.932144 183.994019,178.262146 183.479034,181.466385 
	C182.979355,184.575256 183.185425,188.728073 186.953003,189.181564 
	C191.663681,189.748627 196.578629,188.749802 201.376694,188.183701 
	C201.719879,188.143219 202.132172,186.072678 201.992844,185.014465 
	C201.412827,180.609924 200.633804,176.231567 199.587250,171.145035 
M156.938614,242.191452 
	C158.342224,244.170364 159.590317,247.675232 161.179092,247.837128 
	C165.636978,248.291412 170.243942,247.435471 174.763657,246.869247 
	C175.169083,246.818481 175.707413,245.083878 175.605942,244.197449 
	C175.115372,239.912003 174.924332,235.487030 173.605865,231.444580 
	C172.912720,229.319427 170.282883,226.714096 168.240707,226.436615 
	C165.951675,226.125549 162.224442,227.527069 161.105042,229.380493 
	C158.967667,232.919403 158.235916,237.307236 156.938614,242.191452 
z"/>
<path fill="#F3EED8" opacity="1.000000" stroke="none" 
	d="
M240.459625,269.094055 
	C239.668594,258.695374 238.410400,248.327454 239.269928,238.138168 
	C240.080185,228.532654 241.993561,218.662933 245.563293,209.769028 
	C248.079849,203.499084 254.171112,198.661331 258.682098,193.197128 
	C259.396332,192.331940 260.193756,191.535416 261.274658,190.231293 
	C262.714203,189.164139 263.831818,188.572861 264.949432,187.981567 
	C269.227722,186.296219 273.411835,184.294815 277.802551,182.986832 
	C289.369537,179.541092 301.026245,176.396622 312.977020,173.524719 
	C313.076294,175.221878 312.834381,176.524597 312.617004,177.831406 
	C310.731323,189.169983 311.772827,190.336166 323.423248,189.946426 
	C328.749359,189.768250 331.362427,187.404449 330.544342,182.192474 
	C329.895142,178.056793 327.904877,174.131653 326.510071,170.113007 
	C343.739380,167.225357 360.967468,164.330307 378.198761,161.454514 
	C383.437958,160.580124 387.932739,158.371262 391.718475,154.132828 
	C392.899353,191.369202 393.774536,228.749023 394.677399,267.309052 
	C342.878632,267.947021 291.897980,268.574921 240.459625,269.094055 
M300.330017,233.374695 
	C299.974915,232.630386 299.662476,231.861938 299.257324,231.145935 
	C297.428436,227.913818 294.973938,225.517654 290.936188,226.100204 
	C286.858093,226.688599 285.221863,229.752335 284.533875,233.378174 
	C284.010925,236.134079 283.916595,238.971634 283.387939,241.726089 
	C282.548035,246.102203 283.818298,248.516220 288.670746,248.183487 
	C289.817047,248.104904 290.982605,248.338852 292.140900,248.397217 
	C300.857910,248.836426 303.486084,245.609406 301.463684,236.946533 
	C301.238190,235.980560 300.955109,235.028015 300.330017,233.374695 
M358.561981,189.004654 
	C362.339325,189.312317 366.112854,189.796158 369.895111,189.878479 
	C373.728699,189.961899 376.251221,187.422989 375.721893,183.991364 
	C374.991150,179.253769 373.719727,174.256958 371.278778,170.217972 
	C368.608063,165.798828 361.372925,166.436646 359.964661,171.178513 
	C358.339111,176.652069 358.517944,182.661469 358.561981,189.004654 
M345.855835,226.087723 
	C340.155518,227.574966 339.406494,232.392914 339.062012,236.999466 
	C338.197266,248.562759 335.676208,248.074203 349.997681,248.312393 
	C352.005005,248.345795 354.856750,247.331711 355.918121,245.819946 
	C360.263794,239.630188 354.279114,227.277405 345.855835,226.087723 
z"/>
<path fill="#D2CCB3" opacity="1.000000" stroke="none" 
	d="
M253.124847,119.586601 
	C243.038132,124.803749 244.599258,133.805557 245.791687,142.956726 
	C243.554108,142.956726 241.471878,142.956726 239.380249,142.956726 
	C238.928909,138.007980 238.755295,133.228531 237.994171,128.544540 
	C237.187134,123.578072 234.508881,119.872009 229.106018,119.114182 
	C224.708893,118.497437 219.756516,121.622414 218.227676,126.942871 
	C216.801605,131.905762 216.554031,137.207291 215.682526,143.067062 
	C215.596313,143.072021 214.201950,143.152298 212.633362,143.242584 
	C212.052185,138.514236 211.801529,134.039886 210.884903,129.706421 
	C209.979141,125.424355 208.498352,121.158600 202.984222,120.800354 
	C198.453415,120.505981 194.500397,123.300163 192.890457,128.822861 
	C191.655716,133.058441 191.385941,137.575317 190.611542,142.441193 
	C188.847366,142.441193 186.461777,142.441193 183.569244,142.441193 
	C183.382828,138.961929 183.651489,135.433701 182.884888,132.146942 
	C182.164169,129.056854 181.029755,125.537079 178.884445,123.408844 
	C173.486389,118.053726 165.307510,120.210373 163.059967,127.583801 
	C161.539154,132.573059 161.259964,137.940796 160.365082,143.515228 
	C158.377731,143.515228 155.946426,143.515228 153.631134,143.515228 
	C152.489685,138.355301 151.781189,133.061234 150.032272,128.136658 
	C149.169174,125.706390 146.416840,122.320992 144.462952,122.283180 
	C141.490585,122.225662 137.000809,123.927635 135.769424,126.261490 
	C133.075165,131.367935 132.023972,137.341278 130.204346,143.278061 
	C120.445137,143.371628 111.642525,137.426041 107.929230,127.423141 
	C107.537476,126.367828 107.319756,125.171227 107.348389,124.048515 
	C107.605827,113.953781 108.169762,103.860779 108.164146,93.767540 
	C108.160355,86.958939 108.596184,86.218575 115.439224,86.869125 
	C118.731087,87.182068 122.027107,87.451286 126.330208,87.828827 
	C126.330208,92.603111 126.092735,97.533569 126.405228,102.428917 
	C126.655930,106.356216 126.693527,111.694618 131.278610,112.391495 
	C136.234100,113.144653 141.694366,112.049965 146.622452,110.657257 
	C148.203339,110.210487 149.396576,106.328590 149.701218,103.885391 
	C150.233841,99.614044 150.128922,95.231682 149.941620,90.910988 
	C149.756317,86.636459 151.455414,84.748558 155.754440,85.092072 
	C157.718582,85.249023 159.705688,85.118759 161.787048,85.118759 
	C161.787048,90.441879 161.819763,95.686890 161.779861,100.931335 
	C161.709045,110.238159 164.045288,112.176941 173.185867,110.378471 
	C174.816254,110.057686 176.488525,109.951645 178.121368,109.640976 
	C185.222702,108.289864 186.705276,106.566116 186.929153,99.126518 
	C187.014114,96.303116 186.931595,93.461975 186.715332,90.645050 
	C186.354706,85.947708 188.461075,83.818192 193.111969,83.989769 
	C195.080276,84.062393 197.053467,84.001877 199.078506,84.001877 
	C199.078506,90.991531 198.941544,97.754410 199.119659,104.508987 
	C199.276291,110.447906 201.376541,112.588326 207.212845,111.889923 
	C221.421661,110.189621 222.360428,110.384010 222.060989,96.638077 
	C222.031967,95.305717 222.036682,93.972122 222.051910,92.639397 
	C222.129883,85.815292 222.380219,85.579300 229.765747,85.523010 
	C230.045563,91.775475 230.453629,98.039680 230.563995,104.309120 
	C230.644867,108.903519 232.882950,110.569244 237.656250,110.446335 
	C239.641663,112.201920 240.996414,113.873077 242.743851,114.818207 
	C246.086136,116.625931 249.651855,118.020546 253.124847,119.586601 
z"/>
<path fill="#F0EBD6" opacity="1.000000" stroke="none" 
	d="
M253.507111,119.473740 
	C249.651855,118.020546 246.086136,116.625931 242.743851,114.818207 
	C240.996414,113.873077 239.641663,112.201920 238.070053,110.518600 
	C240.829865,108.918304 243.629196,107.658066 247.009109,106.345947 
	C251.819107,108.396507 255.586319,105.952957 255.901886,100.538689 
	C256.208313,95.281624 256.055511,89.997780 256.104401,84.725700 
	C264.142761,83.579521 265.987762,85.206551 265.840057,93.224411 
	C265.800262,95.383865 265.830597,97.549454 265.944824,99.706070 
	C266.424713,108.767212 274.079163,112.856758 283.166382,108.296021 
	C285.180634,107.061752 287.339203,106.386742 287.763062,105.127724 
	C288.901672,101.745773 289.350433,98.123238 289.972778,94.578613 
	C290.415405,92.057556 290.695068,89.507889 291.047424,86.970993 
	C291.342163,91.203880 291.821411,95.433624 291.893646,99.670311 
	C292.048676,108.764427 292.679413,109.638580 301.691101,111.164742 
	C305.999603,111.894409 310.499847,113.597641 314.557343,109.101303 
	C319.196808,109.998566 322.872803,107.042519 323.960358,102.273270 
	C325.378723,96.053406 324.346649,90.115257 322.434967,84.215515 
	C326.151276,84.169884 327.151855,86.369102 327.229797,89.661232 
	C327.346588,94.591866 327.505249,99.537704 328.028259,104.436264 
	C328.328796,107.251106 329.886536,108.985588 333.289642,109.148956 
	C338.201843,109.384758 343.079773,110.334763 348.713806,111.105774 
	C353.846680,114.841927 356.377380,114.219368 358.557770,108.720772 
	C361.610199,101.022850 361.118774,93.187325 359.053680,85.348495 
	C362.466583,84.775085 363.981049,86.270538 363.969086,89.674835 
	C363.953339,94.151443 363.935913,98.634521 364.148010,103.103958 
	C364.470978,109.908836 367.181671,112.802010 373.926086,113.069344 
	C377.905975,113.227097 382.324219,114.431358 386.100037,110.405182 
	C390.966278,112.055099 393.348511,109.564392 393.844421,106.069153 
	C394.713837,99.941643 394.711487,93.690437 395.074310,87.491051 
	C405.744293,85.506424 405.949524,86.104897 405.622650,96.686028 
	C405.337433,105.918892 406.329712,115.190590 406.725525,124.446495 
	C406.752991,125.088051 406.514160,125.740990 405.792694,126.690178 
	C396.487091,123.675270 387.617432,125.467842 378.786133,126.110405 
	C372.865601,120.288673 368.817688,120.155540 363.978607,125.854660 
	C359.085205,126.074692 354.944336,126.088219 350.803497,126.101746 
	C345.223114,118.711418 339.163757,118.589012 332.058228,125.903625 
	C327.596710,126.032387 323.881195,125.995674 320.165680,125.958961 
	C314.092529,119.178085 309.787109,118.832741 304.147369,124.919113 
	C300.672150,125.058167 297.921844,125.010345 295.171539,124.962524 
	C288.941711,117.695274 284.677490,117.090233 277.828888,122.797867 
	C273.400421,122.660385 269.700104,122.330215 265.999786,122.000038 
	C262.611938,118.142448 258.531128,117.464699 253.507111,119.473740 
z"/>
<path fill="#CDB997" opacity="1.000000" stroke="none" 
	d="
M204.999512,273.883911 
	C232.783524,274.113007 260.067780,274.546539 287.352264,274.558105 
	C318.981384,274.571533 350.611389,274.283539 382.239075,273.943909 
	C387.033875,273.892395 391.806152,272.623138 396.612518,272.374969 
	C398.764465,272.263855 401.274231,272.815613 403.053894,273.954010 
	C404.249756,274.718964 405.082397,277.124054 404.883270,278.638336 
	C404.739136,279.734711 402.759399,281.078278 401.378510,281.417664 
	C398.826050,282.045044 396.114288,282.206879 393.465698,282.232330 
	C365.144562,282.504395 336.822845,282.725708 308.501129,282.932373 
	C285.692474,283.098816 262.882477,283.438690 240.074997,283.323303 
	C201.121094,283.126190 162.168533,282.647461 123.215919,282.238373 
	C119.731400,282.201782 116.196594,282.094482 112.793411,281.449097 
	C111.333923,281.172302 109.125198,279.469757 109.085564,278.350250 
	C109.026970,276.695404 110.265213,274.618835 111.582588,273.409698 
	C112.640633,272.438538 114.735970,271.915283 116.200584,272.170654 
	C142.052109,276.678802 168.047943,274.425842 194.003662,274.008545 
	C197.502060,273.952301 201.001099,273.936340 204.999512,273.883911 
z"/>
<path fill="#F1ECD6" opacity="1.000000" stroke="none" 
	d="
M324.603851,62.061043 
	C324.852600,66.876686 325.101379,71.692322 325.386963,77.220123 
	C321.816101,77.220123 318.085693,77.214012 314.355255,77.221649 
	C309.582550,77.231415 307.629181,79.409126 307.899414,84.364037 
	C308.267700,91.117538 307.991272,97.906204 307.991272,104.773155 
	C298.883789,103.495346 298.882355,103.495384 298.664551,95.167686 
	C298.642761,94.335358 298.657776,93.502144 298.645294,92.669495 
	C298.467621,80.811729 295.699738,78.313148 283.816986,79.280968 
	C279.610809,79.623550 278.049835,82.028137 278.228882,87.029350 
	C278.423798,92.474083 278.273102,97.931190 278.273102,103.712616 
	C274.259552,104.199257 272.252197,103.215202 272.165192,99.475983 
	C272.083801,95.979805 271.956940,92.484268 271.809814,88.990143 
	C271.611115,84.271919 269.202332,80.384109 264.710205,80.004356 
	C258.774872,79.502594 252.557617,79.962547 246.774384,81.331093 
	C244.769806,81.805458 243.064407,86.067780 242.366287,88.883575 
	C241.542938,92.204460 241.908203,95.832176 241.854706,99.328331 
	C241.803223,102.692848 240.231369,104.218498 235.880295,103.725952 
	C235.880295,97.155014 235.880295,90.526222 236.189484,83.264481 
	C236.995483,81.594467 237.608109,80.596252 237.971100,79.514297 
	C241.550613,68.845009 248.311981,61.340416 259.979645,60.946819 
	C273.635773,60.486137 287.333893,61.246361 301.013214,61.509129 
	C308.877380,61.660191 316.740356,61.874954 324.603851,62.061043 
z"/>
<path fill="#D2CCB3" opacity="1.000000" stroke="none" 
	d="
M324.709167,61.637138 
	C316.740356,61.874954 308.877380,61.660191 301.013214,61.509129 
	C287.333893,61.246361 273.635773,60.486137 259.979645,60.946819 
	C248.311981,61.340416 241.550613,68.845009 237.971100,79.514297 
	C237.608109,80.596252 236.995483,81.594467 236.204620,82.830566 
	C231.874298,76.380119 225.622726,80.070953 220.490402,80.254097 
	C216.329636,80.402573 216.006805,84.993919 215.623856,88.481728 
	C215.370178,90.792084 215.410568,93.135429 215.335190,95.464523 
	C215.080154,103.345169 215.082870,103.345261 206.006744,104.832497 
	C206.006744,97.625397 205.826843,90.547951 206.076538,83.485695 
	C206.218430,79.472618 204.658035,77.480927 200.748489,77.389488 
	C196.785202,77.296799 192.818069,77.369026 188.932739,77.369026 
	C188.932739,70.058441 188.932739,63.133305 188.932739,55.983330 
	C234.352356,55.983330 279.336945,55.983330 324.814514,55.983330 
	C324.814514,57.668571 324.814514,59.440903 324.709167,61.637138 
z"/>
<path fill="#D0CAB1" opacity="1.000000" stroke="none" 
	d="
M335.281311,36.181870 
	C334.066040,36.490475 332.847870,37.079128 331.635925,37.066635 
	C303.029846,36.771702 274.424744,36.179752 245.818787,36.140713 
	C224.538864,36.111671 203.258163,36.793739 181.977402,37.134808 
	C177.651016,37.204147 175.606064,35.001244 175.887711,30.693644 
	C176.234970,25.382502 177.123596,20.042358 176.815994,14.770902 
	C176.508163,9.495393 178.981537,8.013485 183.429092,7.906531 
	C185.216110,7.863556 187.005035,7.899454 188.883682,7.899454 
	C189.223114,12.720966 189.395187,17.170237 189.883179,21.584585 
	C190.480087,26.984207 192.823990,28.855244 198.167938,28.618822 
	C203.941986,28.363369 206.871338,25.771423 206.839615,20.544981 
	C206.821518,17.564610 206.203384,14.592966 206.021729,11.607274 
	C205.769043,7.454259 207.617371,6.111235 212.777298,6.111999 
	C217.058884,6.112633 215.790115,8.992829 215.769379,11.347574 
	C215.729980,15.819059 215.303299,20.361467 215.974792,24.730354 
	C216.266357,26.627405 218.636566,29.220409 220.486633,29.643515 
	C223.954193,30.436535 227.785461,30.275717 231.363800,29.779148 
	C235.406784,29.218100 237.131607,26.540548 236.666901,22.236164 
	C236.135635,17.315144 236.107300,12.339831 235.831329,6.804157 
	C237.932648,6.804157 239.527374,6.804157 241.551483,7.333418 
	C241.464249,10.617779 241.038345,13.393599 240.414673,16.124252 
	C238.185669,25.883720 241.856781,30.739691 251.868774,30.983990 
	C257.510742,31.121660 263.167053,30.853817 268.800812,31.115330 
	C287.961975,32.004772 307.120300,32.975250 326.268250,34.108311 
	C329.302887,34.287884 332.278442,35.465618 335.281311,36.181870 
z"/>
<path fill="#CEB997" opacity="1.000000" stroke="none" 
	d="
M294.197479,50.864891 
	C285.818817,50.688385 277.865570,50.221863 269.918518,50.310574 
	C254.995148,50.477154 240.076385,51.154770 225.153671,51.233280 
	C218.357071,51.269035 211.561890,50.182983 204.754700,49.971333 
	C197.189285,49.736107 189.610901,49.917480 181.825211,49.917480 
	C181.661484,47.249119 181.519852,44.940907 181.328598,41.824158 
	C231.668915,41.824158 281.787415,41.824158 332.633575,41.824158 
	C332.466156,44.572853 332.311859,47.105949 332.206848,48.830132 
	C319.370575,49.511669 306.998108,50.168579 294.197479,50.864891 
z"/>
<path fill="#EFEAD4" opacity="1.000000" stroke="none" 
	d="
M335.661133,36.088074 
	C332.278442,35.465618 329.302887,34.287884 326.268250,34.108311 
	C307.120300,32.975250 287.961975,32.004772 268.800812,31.115330 
	C263.167053,30.853817 257.510742,31.121660 251.868774,30.983990 
	C241.856781,30.739691 238.185669,25.883720 240.414673,16.124252 
	C241.038345,13.393599 241.464249,10.617779 241.992676,7.441927 
	C243.478760,7.021175 244.953064,7.021175 247.035309,7.021175 
	C246.654419,12.129117 246.341614,17.056194 245.901581,21.971884 
	C245.599335,25.348230 247.190323,28.063391 250.237167,28.183435 
	C255.543396,28.392496 260.891388,27.542246 266.804932,27.285501 
	C272.820953,27.995556 272.494812,23.538191 272.851074,20.476934 
	C273.367126,16.042309 272.995117,11.504341 273.001953,7.010457 
	C274.466949,6.928714 275.931976,6.846970 278.102997,6.725832 
	C277.861725,12.051248 277.883423,17.121651 277.330719,22.128656 
	C276.831024,26.655293 278.661865,29.380646 282.907227,29.841507 
	C287.858704,30.379019 293.153015,31.709229 298.063232,27.215214 
	C300.394867,25.402214 303.272552,24.023546 303.528717,22.263367 
	C304.263336,17.215672 303.935822,12.013414 304.025848,6.871915 
	C307.031921,6.586400 308.374817,7.935398 308.029327,10.944715 
	C307.783600,13.085133 307.506500,15.222557 307.300659,17.366812 
	C306.946960,21.052048 306.477905,25.020679 310.391083,27.092617 
	C314.348877,29.188143 318.582581,29.678642 323.093384,26.437183 
	C325.570892,25.734678 327.868073,25.617779 329.190125,24.422424 
	C334.217529,19.876892 333.235413,14.016024 332.034271,8.228221 
	C335.713043,8.163885 337.121490,9.836843 337.117523,13.625591 
	C337.111664,19.229830 337.919617,24.833048 337.968292,30.440279 
	C337.984283,32.285904 336.719879,34.142635 335.661133,36.088074 
z"/>
<path fill="#71695E" opacity="1.000000" stroke="none" 
	d="
M264.910767,503.072693 
	C257.147644,503.079254 249.873856,503.079254 241.412521,503.079254 
	C242.622925,496.424438 243.216568,490.214600 244.969070,484.351105 
	C246.733231,478.448608 251.010193,476.158447 257.253906,476.266418 
	C263.302460,476.371002 267.610870,479.471649 269.587280,485.299194 
	C270.169617,487.016235 270.587219,488.819733 270.823273,490.617371 
	C271.336151,494.522827 271.683319,498.450012 272.172089,503.066101 
	C269.624146,503.066101 267.512115,503.066101 264.910767,503.072693 
z"/>
<path fill="#D2CCB3" opacity="1.000000" stroke="none" 
	d="
M378.898804,126.468956 
	C387.617432,125.467842 396.487091,123.675270 405.589539,126.994835 
	C401.096863,136.305527 395.188385,144.203400 383.645081,143.422516 
	C382.077362,137.807739 380.544403,132.317627 378.898804,126.468956 
z"/>
<path fill="#6F675C" opacity="1.000000" stroke="none" 
	d="
M254.141907,143.072617 
	C250.309525,143.559464 248.698395,142.311325 249.125259,138.731979 
	C249.554230,135.134842 249.304031,131.374603 250.272842,127.946198 
	C251.321274,124.236076 254.536972,122.645081 258.463379,122.851860 
	C262.503540,123.064629 263.146179,126.141762 263.428101,129.150162 
	C263.839874,133.544373 263.885468,137.972931 264.118469,143.072754 
	C260.474152,143.072754 257.543488,143.072754 254.141907,143.072617 
z"/>
<path fill="#D2CCB3" opacity="1.000000" stroke="none" 
	d="
M358.602478,85.223495 
	C361.118774,93.187325 361.610199,101.022850 358.557770,108.720772 
	C356.377380,114.219368 353.846680,114.841927 349.143219,111.062836 
	C349.955109,107.917557 351.754730,105.007172 352.054321,101.949821 
	C352.584656,96.537117 352.203003,91.035057 352.203003,85.098495 
	C353.964905,85.098495 356.058105,85.098495 358.602478,85.223495 
z"/>
<path fill="#D4CEB5" opacity="1.000000" stroke="none" 
	d="
M322.098206,84.118591 
	C324.346649,90.115257 325.378723,96.053406 323.960358,102.273270 
	C322.872803,107.042519 319.196808,109.998566 314.769836,108.819977 
	C314.426544,100.620338 314.426544,92.609634 314.426544,84.021667 
	C316.996277,84.021667 319.378845,84.021667 322.098206,84.118591 
z"/>
<path fill="#6F675C" opacity="1.000000" stroke="none" 
	d="
M341.225525,142.862549 
	C337.118835,143.248550 335.626373,141.624359 335.912628,137.975418 
	C336.105927,135.511703 335.255096,132.729599 336.138611,130.620850 
	C337.084778,128.362442 339.262878,125.680290 341.384491,125.165245 
	C342.952515,124.784584 346.403534,127.187027 347.062134,129.042816 
	C348.548462,133.230881 348.824097,137.848618 349.693207,142.875092 
	C346.201843,142.875092 343.941620,142.875092 341.225525,142.862549 
z"/>
<path fill="#6F675C" opacity="1.000000" stroke="none" 
	d="
M165.135315,141.705475 
	C165.634689,137.051163 165.765854,132.684586 167.078857,128.708221 
	C167.646362,126.989555 170.904526,124.803856 172.492096,125.115349 
	C174.546997,125.518524 177.172577,127.932724 177.719727,129.972656 
	C178.586884,133.205734 178.064682,136.855148 177.830704,140.308105 
	C177.774628,141.135727 176.552475,142.542282 175.843811,142.556625 
	C172.315536,142.628082 168.779617,142.323593 165.135315,141.705475 
z"/>
<path fill="#6C645A" opacity="1.000000" stroke="none" 
	d="
M137.265289,130.483948 
	C139.381332,128.720184 141.346649,127.323128 143.311966,125.926071 
	C144.696381,127.956062 146.879623,129.839645 147.284592,132.049164 
	C147.950790,135.683929 147.465210,139.529816 147.465210,143.582840 
	C143.535782,143.582840 139.654282,143.582840 134.650055,143.582840 
	C135.523560,139.070084 136.319061,134.960358 137.265289,130.483948 
z"/>
<path fill="#6C645A" opacity="1.000000" stroke="none" 
	d="
M368.340759,143.855225 
	C367.309387,142.366486 366.296417,140.911469 366.251434,139.427109 
	C366.162170,136.478775 366.136047,133.367935 366.995300,130.608002 
	C367.566711,128.772705 369.619232,126.314339 371.188751,126.175934 
	C372.789764,126.034752 375.523682,128.044983 376.156281,129.719681 
	C377.748169,133.933899 378.435181,138.489929 379.714630,143.875702 
	C375.281830,143.875702 372.039368,143.875702 368.340759,143.855225 
z"/>
<path fill="#6F675C" opacity="1.000000" stroke="none" 
	d="
M284.023773,142.214264 
	C280.199554,138.397827 279.289337,130.423096 281.921539,126.710884 
	C284.012573,123.761909 286.470978,122.980331 289.373169,125.745491 
	C292.451630,128.678574 294.408600,137.544159 292.470093,141.137817 
	C292.011139,141.988663 290.474274,142.590088 289.378448,142.687027 
	C287.760498,142.830170 286.093475,142.418762 284.023773,142.214264 
z"/>
<path fill="#6E665B" opacity="1.000000" stroke="none" 
	d="
M232.615784,127.569870 
	C232.799622,132.450012 232.799622,136.995834 232.799622,141.879974 
	C228.716003,142.269760 225.660721,142.561386 221.089523,142.997711 
	C221.741699,137.558807 221.477524,132.489960 223.098236,128.120209 
	C225.044449,122.872864 228.543991,122.894348 232.615784,127.569870 
z"/>
<path fill="#6E665B" opacity="1.000000" stroke="none" 
	d="
M205.968079,128.358810 
	C206.309570,133.306686 206.528061,137.863388 206.779037,143.097366 
	C202.295883,142.734940 198.881073,142.458878 195.271042,142.167053 
	C194.356583,136.723755 195.100403,131.945953 198.202972,127.720879 
	C200.883743,124.070175 202.845947,124.205429 205.968079,128.358810 
z"/>
<path fill="#6E665B" opacity="1.000000" stroke="none" 
	d="
M312.641083,125.160187 
	C318.796661,129.358749 319.373688,135.254532 318.957855,142.076004 
	C315.298706,142.418976 311.909088,142.736664 307.708862,143.130341 
	C307.708862,138.186218 307.297607,133.746155 307.917908,129.455215 
	C308.155060,127.814728 310.752502,126.515450 312.641083,125.160187 
z"/>
<path fill="#CFC9B0" opacity="1.000000" stroke="none" 
	d="
M350.854797,126.504089 
	C354.944336,126.088219 359.085205,126.074692 363.702515,126.076187 
	C362.920105,131.862381 361.661163,137.633545 360.362885,143.585175 
	C358.205536,143.585175 355.784088,143.585175 353.686676,143.585175 
	C352.726532,137.825958 351.816284,132.366196 350.854797,126.504089 
z"/>
<path fill="#CFC9B0" opacity="1.000000" stroke="none" 
	d="
M255.734650,84.645279 
	C256.055511,89.997780 256.208313,95.281624 255.901886,100.538689 
	C255.586319,105.952957 251.819107,108.396507 247.292480,106.145325 
	C247.374786,101.610603 248.019440,97.227859 248.072998,92.837914 
	C248.157730,85.893600 248.279205,85.560799 255.734650,84.645279 
z"/>
<path fill="#D2CCB3" opacity="1.000000" stroke="none" 
	d="
M394.630920,87.476166 
	C394.711487,93.690437 394.713837,99.941643 393.844421,106.069153 
	C393.348511,109.564392 390.966278,112.055099 386.380066,110.160324 
	C386.952942,102.678581 387.859131,95.333664 388.830353,87.461288 
	C390.297058,87.461288 392.242279,87.461288 394.630920,87.476166 
z"/>
<path fill="#CBC6AD" opacity="1.000000" stroke="none" 
	d="
M320.223633,126.333405 
	C323.881195,125.995674 327.596710,126.032387 331.786194,126.103806 
	C331.545349,131.325333 330.830566,136.512131 330.015961,142.423325 
	C328.088440,142.562973 325.596558,142.743515 323.723785,142.879196 
	C322.494843,137.105637 321.388245,131.906738 320.223633,126.333405 
z"/>
<path fill="#D2CCB3" opacity="1.000000" stroke="none" 
	d="
M266.076538,122.372978 
	C269.700104,122.330215 273.400421,122.660385 277.538269,122.990402 
	C276.622925,129.363297 275.270081,135.736359 273.775330,142.777893 
	C273.022400,142.777893 271.000671,142.777893 269.917145,142.777893 
	C268.620758,135.878235 267.387054,129.312073 266.076538,122.372978 
z"/>
<path fill="#D4CEB5" opacity="1.000000" stroke="none" 
	d="
M331.585815,8.103692 
	C333.235413,14.016024 334.217529,19.876892 329.190125,24.422424 
	C327.868073,25.617779 325.570892,25.734678 323.411316,26.199226 
	C323.880432,20.239613 324.659698,14.427603 325.524292,7.979163 
	C327.020966,7.979163 329.079163,7.979163 331.585815,8.103692 
z"/>
<path fill="#D2CCB3" opacity="1.000000" stroke="none" 
	d="
M290.918396,86.606659 
	C290.695068,89.507889 290.415405,92.057556 289.972778,94.578613 
	C289.350433,98.123238 288.901672,101.745773 287.763062,105.127724 
	C287.339203,106.386742 285.180634,107.061752 283.429260,108.010849 
	C283.463470,100.646492 283.881531,93.274353 284.335876,85.261978 
	C286.431366,85.580307 288.610321,85.911324 290.918396,86.606659 
z"/>
<path fill="#D0CAB1" opacity="1.000000" stroke="none" 
	d="
M303.711761,6.662292 
	C303.935822,12.013414 304.263336,17.215672 303.528717,22.263367 
	C303.272552,24.023546 300.394867,25.402214 298.339966,26.969452 
	C298.049988,21.700077 298.571655,16.376019 298.088867,11.144660 
	C297.656036,6.454903 299.341980,5.434968 303.711761,6.662292 
z"/>
<path fill="#D4CEB5" opacity="1.000000" stroke="none" 
	d="
M272.566528,6.926408 
	C272.995117,11.504341 273.367126,16.042309 272.851074,20.476934 
	C272.494812,23.538191 272.820953,27.995556 267.175232,27.163437 
	C267.189911,23.022142 267.559021,19.153675 267.594971,15.282115 
	C267.618988,12.702042 267.168091,10.117553 266.894989,7.158240 
	C268.963318,7.033464 270.547211,6.937912 272.566528,6.926408 
z"/>
<path fill="#CFC9B0" opacity="1.000000" stroke="none" 
	d="
M295.234070,125.333374 
	C297.921844,125.010345 300.672150,125.058167 303.887939,125.146515 
	C303.274231,130.982773 302.195007,136.778519 301.028442,143.043243 
	C300.153229,143.092484 298.738831,143.172058 298.522736,143.184219 
	C297.388428,137.038284 296.342529,131.371246 295.234070,125.333374 
z"/>
<path fill="#0E0D0B" opacity="1.000000" stroke="none" 
	d="
M201.962234,417.867798 
	C199.679794,417.849396 197.550446,418.423767 196.105438,417.675903 
	C194.206436,416.693085 191.647156,414.783508 191.483948,413.071167 
	C191.032883,408.338715 191.458710,403.475708 192.019440,398.721100 
	C192.198975,397.198761 193.745438,394.762909 194.903152,394.616516 
	C199.952866,393.977905 205.089935,393.935455 210.194611,393.947937 
	C210.818817,393.949493 211.916443,395.552277 211.982620,396.471436 
	C212.374969,401.920258 213.150894,407.450592 212.595917,412.829529 
	C211.968918,418.906860 206.663345,417.835907 201.962234,417.867798 
M207.160980,398.188385 
	C204.520706,398.141052 201.836746,397.797424 199.259537,398.177582 
	C198.060822,398.354431 196.233353,399.855896 196.133148,400.895874 
	C195.759705,404.771729 195.984024,408.705139 195.984024,412.489899 
	C208.068024,414.360931 208.324158,414.158325 208.076523,403.299072 
	C208.042679,401.815430 207.895447,400.334381 207.160980,398.188385 
z"/>
<path fill="#0C0B0A" opacity="1.000000" stroke="none" 
	d="
M235.258789,320.611328 
	C234.729828,322.429749 234.060059,323.819489 233.095795,325.392944 
	C229.337357,325.661835 225.869629,325.886902 222.410553,325.792908 
	C218.939468,325.698578 216.251221,323.669861 216.816544,320.264313 
	C217.625977,315.388245 218.684784,310.152679 221.237152,306.071198 
	C224.234772,301.277679 231.125946,302.618896 232.979462,308.060181 
	C234.286942,311.898499 234.446121,316.127899 235.258789,320.611328 
M230.976898,316.598633 
	C230.674881,314.651642 230.649811,312.602356 229.980850,310.790863 
	C229.470291,309.408356 228.174210,307.371429 227.173386,307.339783 
	C225.736145,307.294373 223.490814,308.468048 222.929672,309.721039 
	C221.388855,313.161682 220.546265,316.915039 219.142487,321.468628 
	C222.532394,321.468628 224.491684,321.671600 226.389236,321.416168 
	C228.653473,321.111359 231.804062,321.490387 230.976898,316.598633 
z"/>
<path fill="#0E0D0C" opacity="1.000000" stroke="none" 
	d="
M172.782181,324.692261 
	C168.668533,325.258392 164.889023,325.733643 161.103836,325.784393 
	C157.570419,325.831726 155.557877,323.631317 155.288391,320.242279 
	C154.851562,314.748779 156.268631,309.660553 160.088287,305.595581 
	C163.401886,302.069153 169.633499,302.415558 170.931564,306.747986 
	C172.610687,312.352234 172.470627,318.501495 172.782181,324.692261 
M162.695404,321.680725 
	C164.955902,321.377136 167.216385,321.073517 170.178192,320.675690 
	C169.627991,316.845093 169.354202,313.401337 168.539062,310.090851 
	C168.250549,308.919220 166.741516,307.436279 165.607452,307.258636 
	C164.497986,307.084808 162.495972,308.095703 162.041031,309.106506 
	C160.700531,312.084900 159.687363,315.276825 159.110077,318.486603 
	C158.962479,319.307220 160.903198,320.503448 162.695404,321.680725 
z"/>
<path fill="#0F0E0D" opacity="1.000000" stroke="none" 
	d="
M301.318481,413.305420 
	C301.403412,408.089203 301.752991,403.281342 301.701080,398.477844 
	C301.657532,394.442810 303.521118,393.151611 307.246582,393.608917 
	C309.055084,393.830902 310.888489,393.949036 312.710358,393.946259 
	C320.999756,393.933655 322.515076,395.001709 322.667786,403.142792 
	C322.972168,419.370911 324.129700,417.919769 307.484070,417.738464 
	C305.444763,417.716278 303.433472,415.119415 301.318481,413.305420 
M308.941223,413.092590 
	C311.848206,413.092590 314.755188,413.092590 317.521698,413.092590 
	C319.622620,398.673035 316.775391,395.325439 306.202026,398.839203 
	C305.919403,402.290863 305.362305,405.752991 305.493164,409.188904 
	C305.543488,410.509552 307.161011,411.770569 308.941223,413.092590 
z"/>
<path fill="#100F0E" opacity="1.000000" stroke="none" 
	d="
M357.228455,310.940918 
	C357.714935,312.580109 358.140594,313.838379 358.401581,315.129883 
	C360.012939,323.103821 357.568542,326.076385 349.591858,325.901062 
	C339.576874,325.680939 339.221344,325.263367 340.546326,315.259186 
	C340.633392,314.601837 340.735596,313.946350 340.838867,313.291290 
	C341.525116,308.937225 342.248596,304.397522 347.611145,303.529602 
	C352.916351,302.670990 355.237457,306.456818 357.228455,310.940918 
M354.750854,320.388885 
	C353.869904,316.629608 353.191681,312.802582 351.973175,309.156097 
	C351.646271,308.177917 349.589600,307.105957 348.478577,307.249542 
	C347.355347,307.394745 345.794128,308.843689 345.519928,309.984680 
	C344.701050,313.392120 344.418854,316.928528 343.846985,320.982422 
	C347.908234,320.982422 350.990906,320.982422 354.750854,320.388885 
z"/>
<path fill="#0E0D0C" opacity="1.000000" stroke="none" 
	d="
M294.920532,309.385315 
	C295.492706,313.537567 295.998291,317.298523 296.448486,321.066040 
	C296.796997,323.982361 295.400879,325.377594 292.515808,325.481049 
	C291.029083,325.534363 289.549286,325.766174 288.062561,325.838287 
	C280.694183,326.195557 278.458099,324.935150 277.908264,320.163147 
	C277.046051,312.680542 281.311188,304.377930 286.598511,303.523041 
	C290.921478,302.824097 293.437469,305.137848 294.920532,309.385315 
M291.080292,309.746094 
	C288.305939,306.173340 286.001678,305.997681 284.137024,309.793274 
	C282.521729,313.081299 281.832153,316.824066 280.536713,320.999939 
	C285.026794,320.999939 288.359375,320.999939 292.411926,320.999939 
	C291.999237,317.034851 291.660767,313.783234 291.080292,309.746094 
z"/>
<path fill="#0D0C0B" opacity="1.000000" stroke="none" 
	d="
M213.481812,233.709320 
	C214.700256,231.686508 215.492661,229.773071 216.828964,228.382172 
	C220.668869,224.385406 226.797638,225.354279 228.473450,230.594177 
	C229.911392,235.090317 230.191666,239.978210 230.729523,244.721710 
	C230.831635,245.622345 229.775085,247.479782 229.199142,247.502090 
	C224.319061,247.691147 219.383026,247.890366 214.571152,247.262939 
	C213.497559,247.122940 212.261566,243.772888 212.146347,241.838470 
	C211.993759,239.276840 212.870056,236.653946 213.481812,233.709320 
M226.044739,235.711090 
	C224.848709,233.765686 223.652679,231.820282 222.456665,229.874893 
	C220.665298,231.532761 218.234558,232.881790 217.246353,234.927612 
	C216.043411,237.418060 216.054703,240.495010 215.547089,243.283630 
	C225.710251,245.423584 226.749420,244.686615 226.044739,235.711090 
z"/>
<path fill="#0F0E0D" opacity="1.000000" stroke="none" 
	d="
M142.742798,189.751434 
	C140.905167,187.657761 138.128311,185.496628 138.337692,183.679611 
	C138.849167,179.241058 140.177582,174.649536 142.329910,170.756989 
	C143.326492,168.954651 147.146820,167.641022 149.439377,167.948990 
	C151.471054,168.221909 154.107559,170.732666 154.797684,172.812729 
	C156.128632,176.824295 156.624496,181.222183 156.707703,185.474762 
	C156.734177,186.827530 154.542206,189.104843 153.039429,189.423920 
	C149.860779,190.098801 146.467377,189.762238 142.742798,189.751434 
M148.450836,171.096527 
	C144.336349,172.596237 140.361847,179.582886 142.050949,183.519058 
	C143.883102,187.788605 147.702255,185.203430 150.733429,185.018753 
	C151.330826,184.982361 151.903183,184.534943 153.668518,183.755325 
	C152.176926,179.569550 150.696182,175.414200 148.450836,171.096527 
z"/>
<path fill="#0F0E0D" opacity="1.000000" stroke="none" 
	d="
M264.939758,187.530365 
	C263.831818,188.572861 262.714203,189.164139 261.301453,189.886292 
	C258.355164,189.996506 255.703064,189.921082 253.053116,189.967361 
	C248.478607,190.047256 245.761353,187.528748 246.286789,183.300400 
	C246.822083,178.992844 248.215714,174.531082 250.376160,170.798157 
	C251.431366,168.974915 255.216782,167.648926 257.519104,167.955475 
	C259.546783,168.225479 262.265076,170.785690 262.854401,172.854187 
	C264.155792,177.422180 264.308655,182.317413 264.939758,187.530365 
M250.139267,179.984116 
	C249.786102,186.546967 251.384155,187.218521 260.764008,184.199875 
	C260.764008,183.012619 261.074341,181.618454 260.704529,180.437256 
	C259.686066,177.184326 261.294922,171.880508 256.511017,171.364975 
	C251.896973,170.867752 251.682465,175.953506 250.139267,179.984116 
z"/>
<path fill="#0D0C0B" opacity="1.000000" stroke="none" 
	d="
M199.757507,171.494324 
	C200.633804,176.231567 201.412827,180.609924 201.992844,185.014465 
	C202.132172,186.072678 201.719879,188.143219 201.376694,188.183701 
	C196.578629,188.749802 191.663681,189.748627 186.953003,189.181564 
	C183.185425,188.728073 182.979355,184.575256 183.479034,181.466385 
	C183.994019,178.262146 184.880295,174.932144 186.438538,172.119415 
	C189.738220,166.163208 194.994354,165.936874 199.757507,171.494324 
M193.550903,171.098343 
	C188.606033,173.328369 186.359299,178.593689 187.776001,185.645020 
	C190.995087,185.427536 194.305603,185.203873 198.034775,184.951935 
	C197.512985,179.676147 198.794739,174.728561 193.550903,171.098343 
z"/>
<path fill="#0D0C0B" opacity="1.000000" stroke="none" 
	d="
M326.226715,169.951477 
	C327.904877,174.131653 329.895142,178.056793 330.544342,182.192474 
	C331.362427,187.404449 328.749359,189.768250 323.423248,189.946426 
	C311.772827,190.336166 310.731323,189.169983 312.617004,177.831406 
	C312.834381,176.524597 313.076294,175.221878 313.400269,173.503571 
	C316.792908,166.735718 320.103699,165.858154 326.226715,169.951477 
M317.008148,174.875198 
	C316.637695,178.096680 316.267273,181.318146 315.824554,185.168335 
	C320.016418,185.168335 323.344025,185.168335 327.862091,185.168335 
	C326.573547,180.870163 325.983429,177.235611 324.415924,174.087769 
	C322.381653,170.002563 320.045380,170.182693 317.008148,174.875198 
z"/>
<path fill="#0B0A09" opacity="1.000000" stroke="none" 
	d="
M156.929657,241.767075 
	C158.235916,237.307236 158.967667,232.919403 161.105042,229.380493 
	C162.224442,227.527069 165.951675,226.125549 168.240707,226.436615 
	C170.282883,226.714096 172.912720,229.319427 173.605865,231.444580 
	C174.924332,235.487030 175.115372,239.912003 175.605942,244.197449 
	C175.707413,245.083878 175.169083,246.818481 174.763657,246.869247 
	C170.243942,247.435471 165.636978,248.291412 161.179092,247.837128 
	C159.590317,247.675232 158.342224,244.170364 156.929657,241.767075 
M170.992462,235.973389 
	C169.690826,233.934723 168.389206,231.896072 167.087570,229.857407 
	C165.279922,231.759445 162.957260,233.397644 161.809570,235.637817 
	C160.663422,237.874954 160.693665,240.714767 160.213943,243.259766 
	C169.793961,245.645920 171.410614,244.637146 170.992462,235.973389 
z"/>
<path fill="#0E0D0C" opacity="1.000000" stroke="none" 
	d="
M300.514343,233.721970 
	C300.955109,235.028015 301.238190,235.980560 301.463684,236.946533 
	C303.486084,245.609406 300.857910,248.836426 292.140900,248.397217 
	C290.982605,248.338852 289.817047,248.104904 288.670746,248.183487 
	C283.818298,248.516220 282.548035,246.102203 283.387939,241.726089 
	C283.916595,238.971634 284.010925,236.134079 284.533875,233.378174 
	C285.221863,229.752335 286.858093,226.688599 290.936188,226.100204 
	C294.973938,225.517654 297.428436,227.913818 299.257324,231.145935 
	C299.662476,231.861938 299.974915,232.630386 300.514343,233.721970 
M287.944763,235.918045 
	C287.378754,244.641953 288.819031,245.717819 298.528717,243.115540 
	C297.965698,240.308624 297.866974,237.229385 296.664948,234.667892 
	C295.755127,232.729095 293.437408,231.450974 291.746216,229.878830 
	C290.504578,231.597855 289.262939,233.316895 287.944763,235.918045 
z"/>
<path fill="#10100F" opacity="1.000000" stroke="none" 
	d="
M358.237640,188.721436 
	C358.517944,182.661469 358.339111,176.652069 359.964661,171.178513 
	C361.372925,166.436646 368.608063,165.798828 371.278778,170.217972 
	C373.719727,174.256958 374.991150,179.253769 375.721893,183.991364 
	C376.251221,187.422989 373.728699,189.961899 369.895111,189.878479 
	C366.112854,189.796158 362.339325,189.312317 358.237640,188.721436 
M361.667389,180.029541 
	C361.981506,181.644455 362.060883,184.547913 362.649658,184.655182 
	C365.461731,185.167511 368.482819,185.246994 371.248413,184.646271 
	C371.750549,184.537216 372.124176,180.206100 371.288574,178.416321 
	C370.023315,175.706207 367.684845,171.545776 365.731903,171.506500 
	C361.410889,171.419586 362.247284,176.093597 361.667389,180.029541 
z"/>
<path fill="#0C0B0A" opacity="1.000000" stroke="none" 
	d="
M346.244690,226.052872 
	C354.279114,227.277405 360.263794,239.630188 355.918121,245.819946 
	C354.856750,247.331711 352.005005,248.345795 349.997681,248.312393 
	C335.676208,248.074203 338.197266,248.562759 339.062012,236.999466 
	C339.406494,232.392914 340.155518,227.574966 346.244690,226.052872 
M346.521240,229.880753 
	C343.662201,232.036530 340.802551,240.066299 343.117401,242.087982 
	C345.339172,244.028366 349.417542,243.842911 353.604340,244.803757 
	C352.845856,238.070007 353.510834,232.528107 346.521240,229.880753 
z"/>
<path fill="#71695E" opacity="1.000000" stroke="none" 
	d="
M207.480850,398.520264 
	C207.895447,400.334381 208.042679,401.815430 208.076523,403.299072 
	C208.324158,414.158325 208.068024,414.360931 195.984024,412.489899 
	C195.984024,408.705139 195.759705,404.771729 196.133148,400.895874 
	C196.233353,399.855896 198.060822,398.354431 199.259537,398.177582 
	C201.836746,397.797424 204.520706,398.141052 207.480850,398.520264 
z"/>
<path fill="#6C655A" opacity="1.000000" stroke="none" 
	d="
M230.981476,317.031494 
	C231.804062,321.490387 228.653473,321.111359 226.389236,321.416168 
	C224.491684,321.671600 222.532394,321.468628 219.142487,321.468628 
	C220.546265,316.915039 221.388855,313.161682 222.929672,309.721039 
	C223.490814,308.468048 225.736145,307.294373 227.173386,307.339783 
	C228.174210,307.371429 229.470291,309.408356 229.980850,310.790863 
	C230.649811,312.602356 230.674881,314.651642 230.981476,317.031494 
z"/>
<path fill="#6C655A" opacity="1.000000" stroke="none" 
	d="
M162.289948,321.603912 
	C160.903198,320.503448 158.962479,319.307220 159.110077,318.486603 
	C159.687363,315.276825 160.700531,312.084900 162.041031,309.106506 
	C162.495972,308.095703 164.497986,307.084808 165.607452,307.258636 
	C166.741516,307.436279 168.250549,308.919220 168.539062,310.090851 
	C169.354202,313.401337 169.627991,316.845093 170.178192,320.675690 
	C167.216385,321.073517 164.955902,321.377136 162.289948,321.603912 
z"/>
<path fill="#71695E" opacity="1.000000" stroke="none" 
	d="
M308.502808,413.075684 
	C307.161011,411.770569 305.543488,410.509552 305.493164,409.188904 
	C305.362305,405.752991 305.919403,402.290863 306.202698,398.839264 
	C316.775391,395.325439 319.622620,398.673035 317.521698,413.092590 
	C314.755188,413.092590 311.848206,413.092590 308.502808,413.075684 
z"/>
<path fill="#6C655A" opacity="1.000000" stroke="none" 
	d="
M354.412231,320.685669 
	C350.990906,320.982422 347.908234,320.982422 343.846985,320.982422 
	C344.418854,316.928528 344.701050,313.392120 345.519928,309.984680 
	C345.794128,308.843689 347.355347,307.394745 348.478577,307.249542 
	C349.589600,307.105957 351.646271,308.177917 351.973175,309.156097 
	C353.191681,312.802582 353.869904,316.629608 354.412231,320.685669 
z"/>
<path fill="#6D665B" opacity="1.000000" stroke="none" 
	d="
M291.201294,310.138855 
	C291.660767,313.783234 291.999237,317.034851 292.411926,320.999939 
	C288.359375,320.999939 285.026794,320.999939 280.536713,320.999939 
	C281.832153,316.824066 282.521729,313.081299 284.137024,309.793274 
	C286.001678,305.997681 288.305939,306.173340 291.201294,310.138855 
z"/>
<path fill="#6F675C" opacity="1.000000" stroke="none" 
	d="
M226.078812,236.125641 
	C226.749420,244.686615 225.710251,245.423584 215.547089,243.283630 
	C216.054703,240.495010 216.043411,237.418060 217.246353,234.927612 
	C218.234558,232.881790 220.665298,231.532761 222.456665,229.874878 
	C223.652679,231.820282 224.848709,233.765686 226.078812,236.125641 
z"/>
<path fill="#6C655A" opacity="1.000000" stroke="none" 
	d="
M148.833130,171.177704 
	C150.696182,175.414200 152.176926,179.569550 153.668518,183.755325 
	C151.903183,184.534943 151.330826,184.982361 150.733429,185.018753 
	C147.702255,185.203430 143.883102,187.788605 142.050949,183.519058 
	C140.361847,179.582886 144.336349,172.596237 148.833130,171.177704 
z"/>
<path fill="#6C655A" opacity="1.000000" stroke="none" 
	d="
M250.229782,179.587692 
	C251.682465,175.953506 251.896973,170.867752 256.511017,171.364975 
	C261.294922,171.880508 259.686066,177.184326 260.704529,180.437256 
	C261.074341,181.618454 260.764008,183.012619 260.764008,184.199875 
	C251.384155,187.218521 249.786102,186.546967 250.229782,179.587692 
z"/>
<path fill="#6D665B" opacity="1.000000" stroke="none" 
	d="
M193.930573,171.158569 
	C198.794739,174.728561 197.512985,179.676147 198.034775,184.951935 
	C194.305603,185.203873 190.995087,185.427536 187.776001,185.645020 
	C186.359299,178.593689 188.606033,173.328369 193.930573,171.158569 
z"/>
<path fill="#6D665B" opacity="1.000000" stroke="none" 
	d="
M317.085205,174.479126 
	C320.045380,170.182693 322.381653,170.002563 324.415924,174.087769 
	C325.983429,177.235611 326.573547,180.870163 327.862091,185.168335 
	C323.344025,185.168335 320.016418,185.168335 315.824554,185.168335 
	C316.267273,181.318146 316.637695,178.096680 317.085205,174.479126 
z"/>
<path fill="#6F675C" opacity="1.000000" stroke="none" 
	d="
M171.027740,236.412445 
	C171.410614,244.637146 169.793961,245.645920 160.213943,243.259766 
	C160.693665,240.714767 160.663422,237.874954 161.809570,235.637817 
	C162.957260,233.397644 165.279922,231.759445 167.087570,229.857407 
	C168.389206,231.896072 169.690826,233.934723 171.027740,236.412445 
z"/>
<path fill="#6F675C" opacity="1.000000" stroke="none" 
	d="
M287.983032,235.476990 
	C289.262939,233.316895 290.504578,231.597855 291.746216,229.878830 
	C293.437408,231.450974 295.755127,232.729095 296.664948,234.667892 
	C297.866974,237.229385 297.965698,240.308624 298.528717,243.115540 
	C288.819031,245.717819 287.378754,244.641953 287.983032,235.476990 
z"/>
<path fill="#6C655A" opacity="1.000000" stroke="none" 
	d="
M361.698059,179.613205 
	C362.247284,176.093597 361.410889,171.419586 365.731903,171.506500 
	C367.684845,171.545776 370.023315,175.706207 371.288574,178.416321 
	C372.124176,180.206100 371.750549,184.537216 371.248413,184.646271 
	C368.482819,185.246994 365.461731,185.167511 362.649658,184.655182 
	C362.060883,184.547913 361.981506,181.644455 361.698059,179.613205 
z"/>
<path fill="#6F675C" opacity="1.000000" stroke="none" 
	d="
M346.922974,229.860977 
	C353.510834,232.528107 352.845856,238.070007 353.604340,244.803757 
	C349.417542,243.842911 345.339172,244.028366 343.117401,242.087982 
	C340.802551,240.066299 343.662201,232.036530 346.922974,229.860977 
z"/>
</svg>